{"title":"Golmaal Again 2017 720p Esub DVD Hindi GOPISAHI","magnet":"magnet:?xt=urn:btih:33b633c758ed23259e29f1a270e88ee8a9163da2&dn=Golmaal+Again+2017+720p+Esub+DVD+Hindi+GOPISAHI&tr=udp%3A%2F%2Ftracker.leechers-paradise.org%3A6969&tr=udp%3A%2F%2Fzer0day.ch%3A1337&tr=udp%3A%2F%2Fopen.demonii.com%3A1337&tr=udp%3A%2F%2Ftracker.coppersurfer.tk%3A6969&tr=udp%3A%2F%2Fexodus.desync.com%3A6969","uploader":"jatt13","categoryP":"video","categoryS":"hd___movies","size":"1009009277","seeders":"0","leechers":"0","description":"[img]https://lookimg.com/images/2017/12/06/kZFId.jpg[/img]\r\nFormat                         : Matroska\r\nFormat version                 : Version 4 / Version 2\r\nFile size                      : 962 MiB\r\nDuration                       : 2 h 31 min\r\nOverall bit rate               : 890 kb/s\r\nMovie name                     : Golmaal Again 2017\r\n\r\nVideo\r\nFormat                         : AVC\r\nCodec ID                       : V_MPEG4/ISO/AVC\r\nDuration                       : 2 h 31 min\r\nBit rate                       : 800 kb/s\r\nWidth                          : 1 280 pixels\r\nHeight                         : 520 pixels\r\nDisplay aspect ratio           : 2.462\r\nFrame rate mode                : Constant\r\nFrame rate                     : 29.970 (29970/1000) FPS\r\nOriginal frame rate            : 29.970 (30000/1001) FPS\r\nStream size                    : 865 MiB (90%)\r\nWriting library                : x264 core 152 r2851 ba24899\r\nLanguage                       : Hindi\r\n\r\nAudio\r\nFormat                         : AAC\r\nDuration                       : 2 h 31 min\r\nBit rate                       : 87.6 kb/s\r\nChannel(s)                     : 6 channels\r\nChannel positions              : Front: L C R, Side: L R, LFE\r\nSampling rate                  : 44.1 kHz\r\nFrame rate                     : 43.066 FPS (1024 SPF)\r\nStream size                    : 94.7 MiB (10%)\r\nLanguage                       : Hindi\r\n\r\nText\r\nLanguage                       : English\r\n\r\n[img]https://lookimg.com/images/2017/12/06/kZIg9.jpg[/img]\r\n[img]https://lookimg.com/images/2017/12/06/kZJmt.jpg[/img]\r\n[img]https://lookimg.com/images/2017/12/06/kZaS8.jpg[/img]","last_updated":"2017-12-06T12:00:36.004Z","parsed":{"xt":"urn:btih:33b633c758ed23259e29f1a270e88ee8a9163da2","dn":"Golmaal Again 2017 720p Esub DVD Hindi GOPISAHI","tr":["udp://exodus.desync.com:6969","udp://open.demonii.com:1337","udp://tracker.coppersurfer.tk:6969","udp://tracker.leechers-paradise.org:6969","udp://zer0day.ch:1337"],"infoHash":"33b633c758ed23259e29f1a270e88ee8a9163da2","infoHashBuffer":{"type":"Buffer","data":[51,182,51,199,88,237,35,37,158,41,241,162,112,232,142,232,169,22,61,162]},"name":"Golmaal Again 2017 720p Esub DVD Hindi GOPISAHI","announce":["udp://exodus.desync.com:6969","udp://open.demonii.com:1337","udp://tracker.coppersurfer.tk:6969","udp://tracker.leechers-paradise.org:6969","udp://zer0day.ch:1337"],"urlList":[]}}